M48
; DRILL file {KiCad (5.1.4)-1} date 10/10/2019 14:43:59
; FORMAT={-:-/ absolute / inch / decimal}
; #@! TF.CreationDate,2019-10-10T14:43:59+02:00
; #@! TF.GenerationSoftware,Kicad,Pcbnew,(5.1.4)-1
; #@! TF.FileFunction,Plated,1,2,PTH
FMAT,2
INCH
T1C0.0276
T2C0.0295
T3C0.0315
T4C0.0354
%
G90
G05
T1
X4.17Y-4.16
X4.47Y-4.16
X5.0675Y-2.04
X5.0675Y-2.34
X4.17Y-4.063
X4.47Y-4.063
X3.26Y-2.78
X3.26Y-3.08
X7.075Y-3.425
X7.075Y-3.725
X5.125Y-3.551
X5.125Y-3.851
X6.35Y-4.075
X6.35Y-4.375
X6.2875Y-2.05
X6.2875Y-2.35
X4.171Y-4.896
X4.471Y-4.896
X7.1725Y-2.59
X7.4725Y-2.59
X4.172Y-4.792
X4.472Y-4.792
X5.925Y-4.075
X5.925Y-4.375
X3.68Y-2.9
X3.68Y-3.2
X3.79Y-2.9
X3.79Y-3.2
X7.075Y-3.875
X7.075Y-4.175
X3.14Y-2.32
X3.14Y-2.62
X6.55Y-4.075
X6.55Y-4.375
X4.22Y-2.9
X4.22Y-3.2
X5.027Y-2.799
X5.327Y-2.799
X4.172Y-4.686
X4.472Y-4.686
X5.0596Y-2.591
X5.3596Y-2.591
X6.6875Y-2.05
X6.6875Y-2.35
X7.075Y-2.975
X7.075Y-3.275
X6.7425Y-2.59
X7.0425Y-2.59
X4.9Y-3.08
X5.2Y-3.08
X3.16Y-2.78
X3.16Y-3.08
X7.0875Y-2.05
X7.0875Y-2.35
X4.172Y-4.579
X4.472Y-4.579
X5.825Y-4.075
X5.825Y-4.375
X6.3125Y-2.59
X6.6125Y-2.59
X4.172Y-4.473
X4.472Y-4.473
X5.625Y-4.075
X5.625Y-4.375
X5.725Y-4.075
X5.725Y-4.375
X3.44Y-2.04
X3.74Y-2.04
X7.075Y-4.325
X7.075Y-4.625
X5.026Y-2.929
X5.326Y-2.929
X5.4675Y-2.04
X5.4675Y-2.34
X4.62Y-2.84
X4.62Y-3.14
X5.8675Y-2.04
X5.8675Y-2.34
X5.4675Y-2.59
X5.7675Y-2.59
X6.45Y-4.075
X6.45Y-4.375
X5.8925Y-2.59
X6.1925Y-2.59
X4.17Y-4.261
X4.47Y-4.261
X6.25Y-4.075
X6.25Y-4.375
T2
X3.45Y-2.89
X3.5Y-2.84
X3.55Y-2.89
X3.9Y-2.89
X3.95Y-2.84
X4.0Y-2.89
X4.35Y-2.89
X4.4Y-2.84
X4.45Y-2.89
X7.2806Y-2.05
X7.3306Y-2.0
X7.3306Y-2.1
X6.8625Y-2.05
X6.9125Y-2.0
X6.9125Y-2.1
X6.0425Y-2.04
X6.0925Y-1.99
X6.0925Y-2.09
X4.8Y-2.89
X4.85Y-2.84
X4.9Y-2.89
X5.6425Y-2.04
X5.6925Y-1.99
X5.6925Y-2.09
X6.4625Y-2.05
X6.5125Y-2.0
X6.5125Y-2.1
X5.2425Y-2.04
X5.2925Y-1.99
X5.2925Y-2.09
T3
X4.676Y-4.058
X4.676Y-4.158
X4.676Y-4.258
X4.676Y-4.358
X4.676Y-4.458
X4.876Y-4.058
X4.876Y-4.158
X4.876Y-4.258
X4.876Y-4.358
X4.876Y-4.458
X3.994Y-4.064
X3.994Y-4.164
X3.994Y-4.264
X3.994Y-4.364
X3.994Y-4.464
X3.994Y-4.564
X3.994Y-4.664
X3.994Y-4.764
X5.625Y-4.5327
X5.625Y-4.8327
X5.725Y-4.5327
X5.725Y-4.8327
X5.825Y-4.5327
X5.825Y-4.8327
X5.925Y-4.5327
X5.925Y-4.8327
X5.9Y-3.6
X5.9Y-3.7
X5.9Y-3.8
X5.9Y-3.9
X5.35Y-4.55
X5.35Y-4.65
X5.35Y-4.75
X6.525Y-3.1
X6.525Y-3.2
X6.525Y-3.3
X6.525Y-3.4
X6.862Y-4.33
X6.862Y-4.4284
X3.3Y-2.27
X3.3Y-2.37
X3.3Y-2.47
X3.3Y-2.57
X3.3Y-2.67
X3.5Y-2.27
X3.5Y-2.37
X3.5Y-2.47
X3.5Y-2.57
X3.5Y-2.67
X6.25Y-4.525
X6.25Y-4.825
X6.35Y-4.525
X6.35Y-4.825
X6.45Y-4.525
X6.45Y-4.825
X6.55Y-4.525
X6.55Y-4.825
X6.85Y-3.875
X6.85Y-3.9734
X6.85Y-3.425
X6.85Y-3.5234
X4.0Y-3.4
X4.0Y-3.5
X4.0Y-3.6
X4.0Y-3.7
X7.275Y-2.975
X7.275Y-3.1522
X7.5309Y-2.975
X7.5309Y-3.1522
X4.2Y-2.27
X4.2Y-2.37
X4.2Y-2.47
X4.2Y-2.57
X4.2Y-2.67
X4.4Y-2.27
X4.4Y-2.37
X4.4Y-2.47
X4.4Y-2.57
X4.4Y-2.67
X7.275Y-4.325
X7.275Y-4.5022
X7.5309Y-4.325
X7.5309Y-4.5022
X3.45Y-3.2
X3.45Y-3.3
X3.45Y-3.4
X3.45Y-3.5
X3.45Y-3.6
X3.45Y-3.7
X3.45Y-3.8
X3.45Y-3.9
X3.45Y-4.0598
X3.45Y-4.1598
X3.45Y-4.2598
X3.45Y-4.3598
X3.45Y-4.4598
X3.45Y-4.5598
X3.45Y-4.6598
X3.45Y-4.7598
X5.35Y-3.2
X5.35Y-3.3
X5.35Y-3.4
X5.35Y-3.5
X5.35Y-3.6
X5.35Y-3.7
X5.35Y-3.9
X5.35Y-4.0
X5.35Y-4.1
X5.35Y-4.2
X5.35Y-4.3
X5.35Y-4.4
X7.275Y-3.425
X7.275Y-3.6022
X7.5309Y-3.425
X7.5309Y-3.6022
X7.275Y-3.875
X7.275Y-4.0522
X7.5309Y-3.875
X7.5309Y-4.0522
X5.55Y-2.9
X5.65Y-2.9
X5.75Y-2.9
X5.85Y-2.9
X5.95Y-2.9
X6.05Y-2.9
X3.75Y-3.4
X3.75Y-3.5
X3.75Y-3.6
X3.75Y-3.7
X6.85Y-2.975
X6.85Y-3.0734
X4.65Y-2.27
X4.65Y-2.37
X4.65Y-2.47
X4.65Y-2.57
X4.65Y-2.67
X4.85Y-2.27
X4.85Y-2.37
X4.85Y-2.47
X4.85Y-2.57
X4.85Y-2.67
X3.75Y-2.27
X3.75Y-2.37
X3.75Y-2.47
X3.75Y-2.57
X3.75Y-2.67
X3.95Y-2.27
X3.95Y-2.37
X3.95Y-2.47
X3.95Y-2.57
X3.95Y-2.67
X4.18Y-3.38
X4.18Y-3.68
X4.28Y-3.38
X4.28Y-3.68
X4.38Y-3.38
X4.38Y-3.68
X4.48Y-3.38
X4.48Y-3.68
X4.58Y-3.38
X4.58Y-3.68
X4.68Y-3.38
X4.68Y-3.68
X4.78Y-3.38
X4.78Y-3.68
X4.88Y-3.38
X4.88Y-3.68
X6.525Y-3.6
X6.525Y-3.7
X6.525Y-3.8
X6.525Y-3.9
T4
X7.2506Y-2.3
X7.3506Y-2.3
X6.4375Y-2.3
X6.5375Y-2.3
X6.0175Y-2.29
X6.1175Y-2.29
X5.6175Y-2.29
X5.7175Y-2.29
X6.8375Y-2.3
X6.9375Y-2.3
X5.2175Y-2.29
X5.3175Y-2.29
T0
M30
